# xmcd
#
# Track frame offsets:
#	150
#	29436
#	46982
#	76242
#	100062
#	133933
#	175022
#	209726
#	228450
#	251886
#	279291
#	301571
#
# Disc length: 4278 seconds
#
# Revision: 0
# Processed by: cddbd v1.4PL0 Copyright (c) Steve Scherf et al.
# Submitted via: dBpowerAMP V4.0
#
DISCID=9e10b40c
DTITLE=Lonie Walker - Change Is Good
DYEAR=2001
DGENRE=Blues
TTITLE0=Living (Honeybee)
TTITLE1=False Security
TTITLE2=Once In A While
TTITLE3=I'll Drop My Pride
TTITLE4=Change Is Good
TTITLE5=Song For Raphael
TTITLE6=Summer Solstice
TTITLE7=Your Smile
TTITLE8=Baby Blue Blues (The Chonka Chonk Song)
TTITLE9=Who's Gonna Tell Her The Ship Is Sinking? (Ghosts)
TTITLE10=Dreamin'
TTITLE11=Earthquake and Sugar
EXTD=
EXTT0=
EXTT1=
EXTT2=
EXTT3=
EXTT4=
EXTT5=
EXTT6=
EXTT7=
EXTT8=
EXTT9=
EXTT10=
EXTT11=
PLAYORDER=
